<svg width="256" height="256" viewBox="0 0 256 256" fill="none" xmlns="http://www.w3.org/2000/svg">
<g clip-path="url(#clip0_145:2)">
<path d="M127.997 250.498C195.65 250.498 250.494 195.654 250.494 128.001C250.494 60.3476 195.65 5.50391 127.997 5.50391C60.3437 5.50391 5.5 60.3476 5.5 128.001C5.5 195.654 60.3437 250.498 127.997 250.498Z" fill="#202020"/>
<path fill-rule="evenodd" clip-rule="evenodd" d="M128 0C198.645 0 256.001 57.3545 256.001 128C256.001 198.646 198.645 256 128 256C57.355 256 0 198.646 0 128C0 57.3545 57.355 0 128 0ZM128 11.3769C192.367 11.3769 244.623 63.6344 244.623 128C244.623 192.366 192.367 244.622 128 244.622C63.6346 244.622 11.3778 192.366 11.3778 128C11.3778 63.6344 63.6346 11.3769 128 11.3769Z" fill="white"/>
<path fill-rule="evenodd" clip-rule="evenodd" d="M150.018 89.8776C134.309 81.2021 113.737 83.1748 100.24 95.7958C86.7423 108.417 84.6326 127.654 93.9105 142.343L150.018 89.8776ZM157.448 82.93C137.566 70.6128 110.515 72.6443 92.9979 89.0243C75.4807 105.404 73.3083 130.699 86.4806 149.291C88.3455 151.923 90.5179 154.421 92.9979 156.74L165.414 89.0243C162.934 86.7053 160.263 84.6739 157.448 82.93Z" fill="white"/>
<path fill-rule="evenodd" clip-rule="evenodd" d="M105.982 165.122C121.691 173.798 142.263 171.825 155.76 159.204C169.258 146.583 171.367 127.346 162.09 112.657L105.982 165.122ZM98.5517 172.07C118.434 184.387 145.485 182.356 163.002 165.976C180.519 149.596 182.692 124.301 169.519 105.709C167.655 103.077 165.482 100.579 163.002 98.2604L90.5858 165.976C93.0658 168.295 95.7369 170.326 98.5517 172.07Z" fill="white"/>
</g>
<defs>
<clipPath id="clip0_145:2">
<rect width="256" height="256" fill="white"/>
</clipPath>
</defs>
</svg>
