<svg width="100" height="105" viewBox="0 0 100 105" fill="none" xmlns="http://www.w3.org/2000/svg">
<path fill-rule="evenodd" clip-rule="evenodd" d="M72.0184 14.8776C56.3093 6.20205 35.7368 8.17479 22.2395 20.7958C8.7423 33.4169 6.63262 52.6539 15.9105 67.3432L72.0184 14.8776ZM79.4483 7.93004C59.5663 -4.38717 32.5151 -2.35575 14.9979 14.0243C-2.51929 30.4043 -4.69174 55.6995 8.48057 74.2908C10.3455 76.9229 12.5179 79.4206 14.9979 81.7396L87.4142 14.0243C84.9342 11.7053 82.2631 9.67386 79.4483 7.93004Z" fill="white"/>
<path fill-rule="evenodd" clip-rule="evenodd" d="M27.9816 90.1224C43.6907 98.7979 64.2632 96.8252 77.7605 84.2042C91.2577 71.5831 93.3674 52.3461 84.0895 37.6568L27.9816 90.1224ZM20.5517 97.07C40.4337 109.387 67.4849 107.356 85.0021 90.9757C102.519 74.5957 104.692 49.3005 91.5194 30.7092C89.6545 28.0771 87.4821 25.5794 85.0021 23.2604L12.5858 90.9757C15.0658 93.2947 17.7369 95.3261 20.5517 97.07Z" fill="white"/>
</svg>
